<?xml version="1.0" encoding="UTF-8" standalone="no"?>
<!-- Created with Inkscape (http://www.inkscape.org/) -->

<svg
   xmlns:dc="http://purl.org/dc/elements/1.1/"
   xmlns:cc="http://creativecommons.org/ns#"
   xmlns:rdf="http://www.w3.org/1999/02/22-rdf-syntax-ns#"
   xmlns:svg="http://www.w3.org/2000/svg"
   xmlns="http://www.w3.org/2000/svg"
   xmlns:sodipodi="http://sodipodi.sourceforge.net/DTD/sodipodi-0.dtd"
   xmlns:inkscape="http://www.inkscape.org/namespaces/inkscape"
   width="147.77577mm"
   height="58.41618mm"
   viewBox="0 0 147.77577 58.41618"
   version="1.1"
   id="svg8"
   sodipodi:docname="captcha2.svg"
   inkscape:version="0.92.3 (2405546, 2018-03-11)">
  <defs
     id="defs2">
    <inkscape:path-effect
       effect="bspline"
       id="path-effect892"
       is_visible="true"
       weight="33.333333"
       steps="2"
       helper_size="0"
       apply_no_weight="true"
       apply_with_weight="true"
       only_selected="false" />
    <inkscape:path-effect
       effect="bspline"
       id="path-effect861"
       is_visible="true"
       weight="33.333333"
       steps="2"
       helper_size="0"
       apply_no_weight="true"
       apply_with_weight="true"
       only_selected="false" />
    <inkscape:path-effect
       effect="bspline"
       id="path-effect857"
       is_visible="true"
       weight="33.333333"
       steps="2"
       helper_size="0"
       apply_no_weight="true"
       apply_with_weight="true"
       only_selected="false" />
    <inkscape:path-effect
       effect="bspline"
       id="path-effect853"
       is_visible="true"
       weight="33.333333"
       steps="2"
       helper_size="0"
       apply_no_weight="true"
       apply_with_weight="true"
       only_selected="false" />
    <inkscape:path-effect
       effect="bspline"
       id="path-effect849"
       is_visible="true"
       weight="33.333333"
       steps="2"
       helper_size="0"
       apply_no_weight="true"
       apply_with_weight="true"
       only_selected="false" />
    <inkscape:path-effect
       effect="bspline"
       id="path-effect841"
       is_visible="true"
       weight="33.333333"
       steps="2"
       helper_size="0"
       apply_no_weight="true"
       apply_with_weight="true"
       only_selected="false" />
    <inkscape:path-effect
       effect="bspline"
       id="path-effect825"
       is_visible="true"
       weight="33.333333"
       steps="2"
       helper_size="0"
       apply_no_weight="true"
       apply_with_weight="true"
       only_selected="false" />
  </defs>
  <sodipodi:namedview
     id="base"
     pagecolor="#ffffff"
     bordercolor="#666666"
     borderopacity="1.0"
     inkscape:pageopacity="0.0"
     inkscape:pageshadow="2"
     inkscape:zoom="0.35"
     inkscape:cx="-198.1703"
     inkscape:cy="-302.85715"
     inkscape:document-units="mm"
     inkscape:current-layer="layer1"
     showgrid="false"
     inkscape:snap-global="false"
     fit-margin-top="0"
     fit-margin-left="0"
     fit-margin-right="0"
     fit-margin-bottom="0"
     inkscape:window-width="1920"
     inkscape:window-height="1025"
     inkscape:window-x="0"
     inkscape:window-y="0"
     inkscape:window-maximized="1" />
  <metadata
     id="metadata5">
    <rdf:RDF>
      <cc:Work
         rdf:about="">
        <dc:format>image/svg+xml</dc:format>
        <dc:type
           rdf:resource="http://purl.org/dc/dcmitype/StillImage" />
        <dc:title></dc:title>
      </cc:Work>
    </rdf:RDF>
  </metadata>
  <g
     inkscape:label="Layer 1"
     inkscape:groupmode="layer"
     id="layer1"
     transform="translate(-19.170653,-10.286199)">
    <path
       style="fill:none;stroke:#000000;stroke-width:2.16499996;stroke-linecap:butt;stroke-linejoin:miter;stroke-miterlimit:4;stroke-dasharray:none;stroke-dashoffset:0;stroke-opacity:1"
       d="m 88.522028,37.70833 c 1.011112,-0.505556 2.019048,-1.009525 2.521429,-1.388031 0.50238,-0.378505 0.50238,-0.630489 0.629695,-0.755158 0.127315,-0.124669 0.379299,-0.124669 0.503968,-0.251984 0.12467,-0.127314 0.12467,-0.379298 0.251985,-0.503967 0.127315,-0.124669 0.379298,-0.124669 0.503968,-0.251986 0.124669,-0.127316 0.124669,-0.379299 0.251984,-0.503968 0.127315,-0.124669 0.379299,-0.124669 0.630754,-0.378241 0.251455,-0.253571 0.503439,-0.757539 0.755953,-1.007935 0.252513,-0.250397 0.504497,-0.250397 0.629166,-0.377712 0.124669,-0.127314 0.124669,-0.379301 0.251984,-0.50397 0.127315,-0.124669 0.379299,-0.124669 0.503968,-0.251984 0.124669,-0.127315 0.124669,-0.379299 0.251983,-0.503968 0.127315,-0.124669 0.379299,-0.124669 0.503969,-0.251984 0.124671,-0.127314 0.124671,-0.379298 0.251986,-0.503967 0.127315,-0.124669 0.379298,-0.124669 0.503967,-0.251984 0.124669,-0.127315 0.124669,-0.379299 0.251984,-0.503968 0.127315,-0.124669 0.379299,-0.124669 0.503968,-0.251985 0.124669,-0.127316 0.124669,-0.3793 0.251984,-0.503969 0.127315,-0.124669 0.379299,-0.124669 0.503968,-0.251984 0.124669,-0.127315 0.124669,-0.379299 0.378241,-0.630754 0.253573,-0.251454 0.757538,-0.503435 1.007938,-0.75595 0.2504,-0.252514 0.2504,-0.504501 0.37771,-0.62917 0.12732,-0.124669 0.3793,-0.124669 0.6297,0.126787 0.2504,0.251456 0.50238,0.755423 0.75463,1.133929 0.25224,0.378505 0.50423,0.630493 0.63022,1.007144 0.12599,0.376651 0.12599,0.880621 0.25198,1.259919 0.126,0.379299 0.37798,0.631284 0.50398,1.007937 0.12599,0.376652 0.12599,0.88062 0.12599,1.384589 0,0.503969 0,1.007937 0,2.015874 0,1.007937 0,2.51984 0,5.795634 0,3.275794 0,8.315477 0,13.357806"
       id="path823"
       inkscape:connector-curvature="0"
       inkscape:path-effect="#path-effect825"
       inkscape:original-d="m 88.522028,37.70833 c 1.010582,-0.506616 2.018519,-1.010584 3.023809,-1.511906 0.0026,-0.25463 0.0026,-0.506614 0,-0.755952 0.25463,-0.0026 0.506614,-0.0026 0.755953,0 0.0026,-0.254629 0.0026,-0.506613 0,-0.755951 0.25463,-0.0026 0.506613,-0.0026 0.755952,0 0.0026,-0.254633 0.0026,-0.506616 0,-0.755954 0.25463,-0.0026 0.506614,-0.0026 0.755952,0 0.25463,-0.506614 0.506614,-1.010582 0.755953,-1.511904 0.25463,-0.0026 0.506614,-0.0026 0.755952,0 0.0026,-0.254629 0.0026,-0.506616 0,-0.755954 0.25463,-0.0026 0.506614,-0.0026 0.755952,0 0.0026,-0.25463 0.0026,-0.506614 0,-0.755952 0.254629,-0.0026 0.506613,-0.0026 0.755954,0 0.0026,-0.254629 0.0026,-0.506613 0,-0.755951 0.25463,-0.0026 0.506613,-0.0026 0.755951,0 0.0026,-0.25463 0.0026,-0.506614 0,-0.755952 0.25463,-0.0026 0.506614,-0.0026 0.755952,0 0.0026,-0.254632 0.0026,-0.506616 0,-0.755954 0.25463,-0.0026 0.506614,-0.0026 0.755952,0 0.0026,-0.25463 0.0026,-0.506614 0,-0.755952 0.506616,-0.254629 1.01058,-0.506613 1.51191,-0.755951 0.003,-0.25463 0.003,-0.506617 0,-0.755955 0.25463,-0.0026 0.50661,-0.0026 0.75595,0 0.25463,0.501325 0.50661,1.005293 0.75595,1.511906 0.25463,0.249338 0.50662,0.501322 0.75595,0.755952 0.003,0.501322 0.003,1.005292 0,1.511906 0.25463,0.249338 0.50662,0.501322 0.75596,0.755951 0.003,0.501322 0.003,1.00529 0,1.511906 0.003,0.501322 0.003,1.00529 0,1.511904 0.003,1.50926 0.003,3.021163 0,4.535714 0.003,5.037037 0.003,10.07672 0,15.119049" />
    <path
       style="fill:none;stroke:#000000;stroke-width:2.16499996;stroke-linecap:butt;stroke-linejoin:miter;stroke-miterlimit:4;stroke-dasharray:none;stroke-dashoffset:0;stroke-opacity:1"
       d="m 52.992265,46.023806 c 7.562169,0 15.121694,0 22.678572,0"
       id="path847"
       inkscape:connector-curvature="0"
       inkscape:path-effect="#path-effect849"
       inkscape:original-d="m 52.992265,46.023806 c 7.562169,-0.0026 15.121694,-0.0026 22.678572,0" />
    <path
       style="fill:none;stroke:#000000;stroke-width:2.16499996;stroke-linecap:butt;stroke-linejoin:miter;stroke-miterlimit:4;stroke-dasharray:none;stroke-dashoffset:0;stroke-opacity:1"
       d="m 124.80778,33.172616 c 2.77421,0.2522 5.54604,0.504184 7.30953,0.756323 1.76348,0.252139 2.51944,0.504126 3.52791,0.629853 1.00846,0.125727 2.26838,0.125727 3.14953,0.251985 0.88115,0.126257 1.38512,0.378242 2.26786,0.503969 0.88274,0.125727 2.14266,0.125727 2.89861,0.125727 0.75595,0 1.00794,0 1.25992,0 0.25198,0 0.50397,0 0.75463,0.125992 0.25066,0.125992 0.50265,0.377975 0.88194,0.503967 0.3793,0.125993 0.88327,0.125993 1.25992,0.251984 0.37666,0.125992 0.62864,0.377977 1.38592,0.503969 0.75727,0.125992 2.01719,0.125992 2.64583,0.250661 0.62864,0.124669 0.62864,0.376652 0.75596,0.503969 0.12731,0.127316 0.37929,0.127316 1.38723,0.127316 1.00793,0 2.77182,0 4.53307,0"
       id="path855"
       inkscape:connector-curvature="0"
       inkscape:path-effect="#path-effect857"
       inkscape:original-d="m 124.80778,33.172616 c 2.77447,0.249338 5.5463,0.501322 8.31548,0.755951 0.75859,0.249338 1.51455,0.501322 2.26785,0.755952 1.26257,-0.0026 2.52249,-0.0026 3.77976,0 0.50662,0.249338 1.01059,0.501325 1.51191,0.755954 1.26257,-0.0026 2.52249,-0.0026 3.77976,0 0.25463,-0.0026 0.50662,-0.0026 0.75595,0 0.25463,-0.0026 0.50662,-0.0026 0.75596,0 0.25463,0.249338 0.50661,0.501322 0.75595,0.755952 0.50661,-0.0026 1.01058,-0.0026 1.5119,0 0.25463,0.249338 0.50662,0.501322 0.75596,0.755952 1.26256,-0.0026 2.52248,-0.0026 3.77976,0 0.003,0.249338 0.003,0.501321 0,0.755954 0.25463,-0.0026 0.50661,-0.0026 0.75595,0 1.76653,-0.0026 3.53042,-0.0026 5.29167,0" />
    <path
       style="fill:none;stroke:#000000;stroke-width:2.16499996;stroke-linecap:butt;stroke-linejoin:miter;stroke-miterlimit:4;stroke-dasharray:none;stroke-dashoffset:0;stroke-opacity:1"
       d="m 123.29588,46.023806 c 7.31018,0 14.61772,0 21.92261,0"
       id="path859"
       inkscape:connector-curvature="0"
       inkscape:path-effect="#path-effect861"
       inkscape:original-d="m 123.29588,46.023806 c 7.31018,-0.0026 14.61772,-0.0026 21.92261,0" />
    <path
       style="fill:none;stroke:#000000;stroke-width:1.46500003;stroke-linecap:butt;stroke-linejoin:miter;stroke-miterlimit:4;stroke-dasharray:none;stroke-opacity:1"
       d="m 50.1647,28.636904 c -1.50926,0 -3.021164,0 -3.903108,0 -0.881945,0 -1.133928,0 -1.385912,0.124669 -0.251985,0.124669 -0.503969,0.376653 -1.259921,0.503968 -0.755953,0.127315 -2.015873,0.127315 -4.157738,0.127315 -2.141865,0 -5.165675,0 -7.30754,0 -2.141865,0 -3.401785,0 -4.157737,0 -0.755953,0 -1.007937,0 -1.135252,0.376654 -0.127315,0.376653 -0.127315,1.132605 -0.377712,1.637103 -0.250397,0.504498 -0.754365,0.756482 -1.007936,1.007936 -0.253572,0.251455 -0.253572,0.503439 -0.253572,1.259391 0,0.755953 0,2.015874 0,3.401787 0,1.385912 0,2.897817 0,3.779761 0,0.881945 0,1.133929 0.631283,1.261244 0.631283,0.127315 1.891204,0.127315 4.159061,0.127315 2.267857,0 5.543651,0 7.811508,0 2.267857,0 3.527778,0 4.282142,0.251455 0.754365,0.251455 1.00635,0.755424 1.259921,1.007937 0.253572,0.252513 0.505556,0.252513 1.134193,0.756481 0.628638,0.503968 1.636575,1.511904 2.140543,2.140541 0.503968,0.628637 0.503968,0.880624 0.503968,1.132607 0,0.251984 0,0.503968 0.125727,0.882738 0.125728,0.37877 0.377711,0.882737 0.503968,1.259921 0.126257,0.377183 0.126257,0.629167 0.126257,0.881151 0,0.251983 0,0.503967 0,0.755951 0,0.251984 0,0.503968 -0.124669,0.631283 -0.124669,0.127315 -0.376653,0.127315 -0.503968,0.251984 -0.127315,0.124669 -0.127315,0.376655 -0.251984,0.50397 -0.12467,0.127315 -0.376654,0.127315 -0.503969,0.251984 -0.127315,0.124669 -0.127315,0.376653 -0.251984,0.503968 -0.124669,0.127314 -0.376653,0.127314 -0.628637,0.251983 -0.251984,0.12467 -0.503968,0.376653 -0.631283,0.628637 -0.127315,0.251984 -0.127315,0.503968 -0.251984,0.631284 -0.12467,0.127316 -0.376654,0.127316 -1.258598,0.127316 -0.881945,0 -2.39385,0 -3.275794,0.124669 -0.881944,0.124669 -1.133928,0.376653 -1.637896,0.503968 -0.503969,0.127315 -1.259921,0.127315 -1.889882,0.377976 -0.62996,0.250661 -1.133928,0.754629 -1.763889,1.007935 -0.62996,0.253307 -1.385912,0.253307 -2.51984,0.253307 -1.133929,0 -2.645834,0 -3.653506,0.125198 -1.007672,0.125199 -1.51164,0.377184 -1.889881,0.50397 -0.378241,0.126786 -0.630225,0.126786 -0.75754,0.251455 -0.127315,0.124669 -0.127315,0.376653 -0.251984,0.628637 -0.124669,0.251984 -0.376653,0.503968 -0.631283,0.758598"
       id="path890"
       inkscape:connector-curvature="0"
       inkscape:path-effect="#path-effect892"
       inkscape:original-d="m 50.1647,28.636904 c -1.50926,-0.0026 -3.021164,-0.0026 -4.535714,0 -0.249339,-0.0026 -0.501322,-0.0026 -0.755952,0 -0.249339,0.249338 -0.501323,0.501322 -0.755953,0.755952 -1.257275,-0.0026 -2.517195,-0.0026 -3.779762,0 -3.021163,-0.0026 -6.044973,-0.0026 -9.071428,0 -1.257275,-0.0026 -2.517195,-0.0026 -3.779762,0 -0.249338,-0.0026 -0.501322,-0.0026 -0.755952,0 0.0026,0.753307 0.0026,1.509259 0,2.267858 -0.501323,0.249338 -1.005291,0.501322 -1.511905,0.755952 0.0026,0.249338 0.0026,0.501322 0,0.755952 0.0026,1.257275 0.0026,2.517196 0,3.779762 0.0026,1.509259 0.0026,3.021164 0,4.535714 0.0026,0.249339 0.0026,0.501323 0,0.755953 1.262566,-0.0026 2.522487,-0.0026 3.779762,0 3.278439,-0.0026 6.554233,-0.0026 9.827381,0 1.262566,-0.0026 2.522487,-0.0026 3.779761,0 0.25463,0.501322 0.506615,1.005291 0.755953,1.511905 0.25463,-0.0026 0.506614,-0.0026 0.755952,0 1.010583,1.00529 2.018519,2.013227 3.02381,3.023808 0.0026,0.249338 0.0026,0.501325 0,0.755954 0.0026,0.249338 0.0026,0.501322 0,0.755952 0.25463,0.501322 0.506614,1.005289 0.755952,1.511906 0.0026,0.249338 0.0026,0.501322 0,0.755951 0.0026,0.249338 0.0026,0.501322 0,0.755952 0.0026,0.249338 0.0026,0.501322 0,0.755952 -0.249338,-0.0026 -0.501322,-0.0026 -0.755952,0 0.0026,0.249338 0.0026,0.501324 0,0.755954 -0.249339,-0.0026 -0.501323,-0.0026 -0.755953,0 0.0026,0.249338 0.0026,0.501322 0,0.755951 -0.249338,-0.0026 -0.501322,-0.0026 -0.755952,0 -0.249339,0.249338 -0.501322,0.501322 -0.755952,0.755952 0.0026,0.249338 0.0026,0.501322 0,0.755954 -0.249339,-0.0026 -0.501323,-0.0026 -0.755953,0 -1.509259,-0.0026 -3.021164,-0.0026 -4.535714,0 -0.249338,0.249338 -0.501322,0.501322 -0.755952,0.755952 -0.753307,-0.0026 -1.509259,-0.0026 -2.267858,0 -0.501322,0.501322 -1.00529,1.00529 -1.511904,1.511903 -0.753307,-0.0026 -1.509259,-0.0026 -2.267857,0 -1.509259,-0.0026 -3.021164,-0.0026 -4.535715,0 -0.501322,0.249338 -1.00529,0.501325 -1.511904,0.755954 -0.249339,-0.0026 -0.501323,-0.0026 -0.755953,0 0.0026,0.249338 0.0026,0.501322 0,0.755952 -0.249338,0.249338 -0.501322,0.501322 -0.755952,0.755952" />
  </g>
</svg>
