<?xml version="1.0" encoding="UTF-8" standalone="no"?>
<!-- Created with Inkscape (http://www.inkscape.org/) -->

<svg
   xmlns:dc="http://purl.org/dc/elements/1.1/"
   xmlns:cc="http://creativecommons.org/ns#"
   xmlns:rdf="http://www.w3.org/1999/02/22-rdf-syntax-ns#"
   xmlns:svg="http://www.w3.org/2000/svg"
   xmlns="http://www.w3.org/2000/svg"
   xmlns:sodipodi="http://sodipodi.sourceforge.net/DTD/sodipodi-0.dtd"
   xmlns:inkscape="http://www.inkscape.org/namespaces/inkscape"
   width="147.77577mm"
   height="58.41618mm"
   viewBox="0 0 147.77577 58.41618"
   version="1.1"
   id="svg8"
   inkscape:version="0.92.3 (2405546, 2018-03-11)"
   sodipodi:docname="captcha1.svg">
  <defs
     id="defs2">
    <inkscape:path-effect
       effect="bspline"
       id="path-effect861"
       is_visible="true"
       weight="33.333333"
       steps="2"
       helper_size="0"
       apply_no_weight="true"
       apply_with_weight="true"
       only_selected="false" />
    <inkscape:path-effect
       effect="bspline"
       id="path-effect857"
       is_visible="true"
       weight="33.333333"
       steps="2"
       helper_size="0"
       apply_no_weight="true"
       apply_with_weight="true"
       only_selected="false" />
    <inkscape:path-effect
       effect="bspline"
       id="path-effect853"
       is_visible="true"
       weight="33.333333"
       steps="2"
       helper_size="0"
       apply_no_weight="true"
       apply_with_weight="true"
       only_selected="false" />
    <inkscape:path-effect
       effect="bspline"
       id="path-effect849"
       is_visible="true"
       weight="33.333333"
       steps="2"
       helper_size="0"
       apply_no_weight="true"
       apply_with_weight="true"
       only_selected="false" />
    <inkscape:path-effect
       effect="bspline"
       id="path-effect841"
       is_visible="true"
       weight="33.333333"
       steps="2"
       helper_size="0"
       apply_no_weight="true"
       apply_with_weight="true"
       only_selected="false" />
    <inkscape:path-effect
       effect="bspline"
       id="path-effect825"
       is_visible="true"
       weight="33.333333"
       steps="2"
       helper_size="0"
       apply_no_weight="true"
       apply_with_weight="true"
       only_selected="false" />
  </defs>
  <sodipodi:namedview
     id="base"
     pagecolor="#ffffff"
     bordercolor="#666666"
     borderopacity="1.0"
     inkscape:pageopacity="0.0"
     inkscape:pageshadow="2"
     inkscape:zoom="0.35"
     inkscape:cx="-198.1703"
     inkscape:cy="-302.85715"
     inkscape:document-units="mm"
     inkscape:current-layer="layer1"
     showgrid="false"
     inkscape:snap-global="false"
     fit-margin-top="0"
     fit-margin-left="0"
     fit-margin-right="0"
     fit-margin-bottom="0"
     inkscape:window-width="1920"
     inkscape:window-height="1025"
     inkscape:window-x="0"
     inkscape:window-y="0"
     inkscape:window-maximized="1" />
  <metadata
     id="metadata5">
    <rdf:RDF>
      <cc:Work
         rdf:about="">
        <dc:format>image/svg+xml</dc:format>
        <dc:type
           rdf:resource="http://purl.org/dc/dcmitype/StillImage" />
        <dc:title></dc:title>
      </cc:Work>
    </rdf:RDF>
  </metadata>
  <g
     inkscape:label="Layer 1"
     inkscape:groupmode="layer"
     id="layer1"
     transform="translate(-19.170653,-10.286199)">
    <path
       style="fill:none;stroke:#000000;stroke-width:2.16499996;stroke-linecap:butt;stroke-linejoin:miter;stroke-miterlimit:4;stroke-dasharray:none;stroke-dashoffset:0;stroke-opacity:1"
       d="m 28.650601,38.615472 c 1.011112,-0.505556 2.019048,-1.009525 2.521429,-1.388031 0.50238,-0.378505 0.50238,-0.630489 0.629695,-0.755158 0.127315,-0.124669 0.379299,-0.124669 0.503969,-0.251984 0.124669,-0.127314 0.124669,-0.379298 0.251984,-0.503967 0.127315,-0.124669 0.379298,-0.124669 0.503968,-0.251986 0.124669,-0.127316 0.124669,-0.379299 0.251984,-0.503968 0.127315,-0.124669 0.379299,-0.124669 0.630754,-0.378241 0.251455,-0.253571 0.503439,-0.757539 0.755953,-1.007935 0.252513,-0.250397 0.504497,-0.250397 0.629166,-0.377712 0.124669,-0.127314 0.124669,-0.379301 0.251984,-0.50397 0.127315,-0.124669 0.379299,-0.124669 0.503968,-0.251984 0.124669,-0.127315 0.124669,-0.379299 0.251984,-0.503968 0.127314,-0.124669 0.379298,-0.124669 0.503969,-0.251984 0.12467,-0.127314 0.12467,-0.379298 0.251985,-0.503967 0.127315,-0.124669 0.379298,-0.124669 0.503967,-0.251984 0.124669,-0.127315 0.124669,-0.379299 0.251984,-0.503968 0.127315,-0.124669 0.379299,-0.124669 0.503968,-0.251985 0.124669,-0.127316 0.124669,-0.3793 0.251984,-0.503969 0.127315,-0.124669 0.379299,-0.124669 0.503968,-0.251984 0.124669,-0.127315 0.124669,-0.379299 0.378241,-0.630754 0.253573,-0.251455 0.757541,-0.503438 1.007937,-0.755951 0.250397,-0.252513 0.250397,-0.5045 0.377712,-0.629169 0.127314,-0.124669 0.379298,-0.124669 0.629695,0.126787 0.250397,0.251456 0.502382,0.755424 0.75463,1.133929 0.252249,0.378505 0.504233,0.630489 0.630225,1.007142 0.125992,0.376653 0.125992,0.880623 0.251984,1.259922 0.125992,0.379299 0.377976,0.631283 0.503968,1.007935 0.125992,0.376653 0.125992,0.880621 0.125992,1.38459 0,0.503969 0,1.007937 0,2.015874 0,1.007937 0,2.51984 0,5.795634 0,3.275794 0,8.315477 0,13.357806"
       id="path823"
       inkscape:connector-curvature="0"
       inkscape:path-effect="#path-effect825"
       inkscape:original-d="m 28.650601,38.615472 c 1.010582,-0.506616 2.018519,-1.010584 3.023809,-1.511906 0.0026,-0.25463 0.0026,-0.506614 0,-0.755952 0.25463,-0.0026 0.506614,-0.0026 0.755953,0 0.0026,-0.254629 0.0026,-0.506613 0,-0.755951 0.25463,-0.0026 0.506613,-0.0026 0.755952,0 0.0026,-0.254633 0.0026,-0.506616 0,-0.755954 0.25463,-0.0026 0.506614,-0.0026 0.755952,0 0.25463,-0.506614 0.506614,-1.010582 0.755953,-1.511904 0.25463,-0.0026 0.506614,-0.0026 0.755952,0 0.0026,-0.254629 0.0026,-0.506616 0,-0.755954 0.25463,-0.0026 0.506614,-0.0026 0.755952,0 0.0026,-0.25463 0.0026,-0.506614 0,-0.755952 0.254629,-0.0026 0.506613,-0.0026 0.755954,0 0.0026,-0.254629 0.0026,-0.506613 0,-0.755951 0.25463,-0.0026 0.506613,-0.0026 0.755951,0 0.0026,-0.25463 0.0026,-0.506614 0,-0.755952 0.25463,-0.0026 0.506614,-0.0026 0.755952,0 0.0026,-0.254632 0.0026,-0.506616 0,-0.755954 0.25463,-0.0026 0.506614,-0.0026 0.755952,0 0.0026,-0.25463 0.0026,-0.506614 0,-0.755952 0.506616,-0.254629 1.010584,-0.506613 1.511906,-0.755951 0.0026,-0.25463 0.0026,-0.506617 0,-0.755955 0.254629,-0.0026 0.506613,-0.0026 0.755951,0 0.25463,0.501325 0.506614,1.005293 0.755954,1.511906 0.25463,0.249338 0.506614,0.501322 0.755952,0.755952 0.0026,0.501322 0.0026,1.005292 0,1.511906 0.25463,0.249338 0.506614,0.501322 0.755952,0.755951 0.0026,0.501322 0.0026,1.00529 0,1.511906 0.0026,0.501322 0.0026,1.00529 0,1.511904 0.0026,1.50926 0.0026,3.021163 0,4.535714 0.0026,5.037037 0.0026,10.07672 0,15.119049" />
    <path
       style="fill:none;stroke:#000000;stroke-width:2.16499996;stroke-linecap:butt;stroke-linejoin:miter;stroke-miterlimit:4;stroke-dasharray:none;stroke-dashoffset:0;stroke-opacity:1"
       d="m 61.912505,33.323805 c 0,1.257274 0,2.517196 0.125727,3.399933 0.125728,0.882738 0.377711,1.386706 0.503968,1.763889 0.126257,0.377183 0.126257,0.629167 0.251984,1.007936 0.125728,0.378769 0.377712,0.882737 0.50397,1.385912 0.126257,0.503176 0.126257,1.007144 0.252249,1.386443 0.125992,0.379299 0.377976,0.631283 0.503967,1.133929 0.125992,0.502646 0.125992,1.258597 0.251984,1.763888 0.125992,0.505291 0.377975,0.757276 0.503968,1.133929 0.125992,0.376654 0.125992,0.880622 0.251984,1.259921 0.125992,0.379298 0.377976,0.631282 0.503968,1.385912 0.125992,0.75463 0.125992,2.014549 0.251985,2.771825 0.125992,0.757277 0.377977,1.00926 0.503969,1.511905 0.125992,0.502645 0.125992,1.258599 0.125992,2.644512 0,1.385912 0,3.401783 0,5.420303"
       id="path839"
       inkscape:connector-curvature="0"
       inkscape:path-effect="#path-effect841"
       inkscape:original-d="m 61.912505,33.323805 c 0.0026,1.257274 0.0026,2.517196 0,3.779761 0.25463,0.501322 0.506614,1.00529 0.755952,1.511906 0.0026,0.249338 0.0026,0.501322 0,0.755951 0.254629,0.501322 0.506613,1.00529 0.755954,1.511906 0.0026,0.501322 0.0026,1.00529 0,1.511904 0.25463,0.249338 0.506613,0.501322 0.755951,0.755951 0.0026,0.753309 0.0026,1.50926 0,2.267858 0.25463,0.249338 0.506614,0.501322 0.755952,0.755954 0.0026,0.501322 0.0026,1.00529 0,1.511903 0.25463,0.249338 0.506614,0.501322 0.755952,0.755952 0.0026,1.257276 0.0026,2.517195 0,3.779763 0.254632,0.249338 0.506616,0.501322 0.755954,0.755952 0.0026,0.753306 0.0026,1.50926 0,2.267857 0.0026,2.013228 0.0026,4.029099 0,6.047619" />
    <path
       style="fill:none;stroke:#000000;stroke-width:2.16499996;stroke-linecap:butt;stroke-linejoin:miter;stroke-miterlimit:4;stroke-dasharray:none;stroke-dashoffset:0;stroke-opacity:1"
       d="m 55.108933,43.907138 c 7.562169,0 15.121694,0 22.678572,0"
       id="path847"
       inkscape:connector-curvature="0"
       inkscape:path-effect="#path-effect849"
       inkscape:original-d="m 55.108933,43.907138 c 7.562169,-0.0026 15.121694,-0.0026 22.678572,0" />
    <path
       style="fill:none;stroke:#000000;stroke-width:2.16499996;stroke-linecap:butt;stroke-linejoin:miter;stroke-miterlimit:4;stroke-dasharray:none;stroke-dashoffset:0;stroke-opacity:1"
       d="m 96.686314,29.544042 c 0,-1.766533 0,-3.530423 0,-4.53836 0,-1.007936 0,-1.25992 0.127315,-1.511904 0.127314,-0.251984 0.379298,-0.503968 0.503967,-0.755952 0.124669,-0.251984 0.124669,-0.50397 0.251985,-0.628639 0.127317,-0.124669 0.379301,-0.124669 0.50397,-0.251984 0.124669,-0.127315 0.124669,-0.379299 0.251983,-0.503968 0.127315,-0.124669 0.379299,-0.124669 0.630754,-0.37824 0.251454,-0.253571 0.503438,-0.757539 1.259922,-1.007936 0.75648,-0.250396 2.01641,-0.250396 2.64505,-0.377712 0.62864,-0.127316 0.62864,-0.3793 0.75596,-0.503969 0.12732,-0.124669 0.3793,-0.124669 0.63128,-0.124669 0.25199,0 0.50397,0 0.62864,0.124669 0.12468,0.124669 0.12468,0.376653 0.25199,0.503969 0.12732,0.127316 0.3793,0.127316 0.6297,0.378772 0.2504,0.251456 0.50238,0.755422 0.88063,1.25992 0.37824,0.504497 0.88221,1.008466 1.1342,1.889086 0.25198,0.880621 0.25198,2.140543 0.25198,4.408399 0,2.267856 0,5.543652 0,8.189485 0,2.645833 0,4.661704 0,5.795633 0,1.133929 0,1.385913 -0.12467,1.513228 -0.12467,0.127314 -0.37665,0.127314 -0.50397,0.251983 -0.12731,0.124669 -0.12731,0.376656 -0.25198,0.503971 -0.12467,0.127314 -0.37666,0.127314 -0.50398,0.251984 -0.12731,0.124669 -0.12731,0.376652 -0.25198,0.628636 -0.12467,0.251984 -0.37665,0.503964 -0.62864,0.755951 -0.25199,0.251987 -0.50397,0.503969 -0.75596,0.631285 -0.25199,0.127316 -0.50397,0.127316 -0.63129,0.251985 -0.12731,0.124669 -0.12731,0.376653 -0.25198,0.628637 -0.12467,0.251984 -0.37665,0.503964 -0.62864,0.755947 -0.25198,0.251984 -0.50397,0.503972 -0.75596,0.631287 -0.25198,0.127315 -0.50397,0.127315 -0.63129,0.251984 -0.12731,0.124669 -0.12731,0.376655 -0.25198,0.628639 -0.12467,0.251984 -0.37666,0.503969 -0.62864,0.755953 -0.25199,0.251984 -0.50397,0.503966 -0.75596,0.631281 -0.25198,0.127315 -0.503967,0.127315 -0.631282,0.251984 -0.127315,0.124669 -0.127315,0.376653 -0.377711,0.629168 -0.250397,0.252514 -0.754365,0.504498 -1.132605,0.755952 -0.37824,0.251455 -0.630225,0.503438 -1.386177,0.630754 -0.755953,0.127315 -2.015875,0.127315 -2.897819,0.127315 -0.881943,0 -1.385911,0 -1.385911,0 0,0 0.503968,0 4.661706,0 4.157739,0 11.969299,0 16.505009,0 4.53571,0 5.79564,0 6.55159,0 0.75595,0 1.00793,0 1.1326,0.124669 0.12467,0.124669 0.12467,0.376653 0.12467,0.631282"
       id="path851"
       inkscape:connector-curvature="0"
       inkscape:path-effect="#path-effect853"
       inkscape:original-d="m 96.686314,29.544042 c 0.0026,-1.766533 0.0026,-3.530423 0,-5.291667 0.0026,-0.254629 0.0026,-0.506613 0,-0.755951 0.254629,-0.25463 0.506613,-0.506614 0.755951,-0.755952 0.0026,-0.25463 0.0026,-0.506616 0,-0.755954 0.254633,-0.0026 0.506617,-0.0026 0.755955,0 0.0026,-0.25463 0.0026,-0.506614 0,-0.755952 0.254629,-0.0026 0.506613,-0.0026 0.755951,0 0.25463,-0.506613 0.506614,-1.010581 0.755952,-1.511903 1.262567,-0.0026 2.522497,-0.0026 3.779777,0 0.003,-0.254632 0.003,-0.506616 0,-0.755954 0.25464,-0.0026 0.50662,-0.0026 0.75596,0 0.25463,-0.0026 0.50661,-0.0026 0.75596,0 0.003,0.249338 0.003,0.501322 0,0.755954 0.25463,-0.0026 0.50661,-0.0026 0.75595,0 0.25464,0.501322 0.50662,1.00529 0.75596,1.511903 0.50662,0.501322 1.01059,1.00529 1.51191,1.511906 0.003,1.257274 0.003,2.517196 0,3.779761 0.003,3.273147 0.003,6.548943 0,9.827381 0.003,2.013228 0.003,4.029099 0,6.047619 0.003,0.249338 0.003,0.501322 0,0.755951 -0.24934,-0.0026 -0.50132,-0.0026 -0.75595,0 0.003,0.249338 0.003,0.501325 0,0.755954 -0.24934,-0.0026 -0.50133,-0.0026 -0.75596,0 0.003,0.249339 0.003,0.501322 0,0.755952 -0.24934,0.249338 -0.50132,0.501322 -0.75596,0.755952 -0.24934,0.249338 -0.50132,0.501322 -0.75595,0.755954 -0.24935,-0.0026 -0.50133,-0.0026 -0.75596,0 0.003,0.249338 0.003,0.501322 0,0.755952 -0.24934,0.249338 -0.50132,0.501321 -0.75596,0.755951 -0.24933,0.249338 -0.50132,0.501322 -0.75595,0.755952 -0.24934,-0.0026 -0.50133,-0.0026 -0.75596,0 0.003,0.249338 0.003,0.501324 0,0.755954 -0.24934,0.249338 -0.50133,0.501322 -0.75596,0.755952 -0.24934,0.249338 -0.50132,0.501322 -0.75595,0.755951 -0.24934,-0.0026 -0.501327,-0.0026 -0.755957,0 0.0026,0.249338 0.0026,0.501322 0,0.755955 -0.501322,0.249338 -1.00529,0.501321 -1.511903,0.755951 -0.249338,0.249338 -0.501322,0.501322 -0.755955,0.755952 -1.257273,-0.0026 -2.517195,-0.0026 -3.77976,0 -0.501322,-0.0026 -1.00529,-0.0026 -1.511906,0 0.506616,-0.0026 1.010584,-0.0026 1.511906,0 7.814155,-0.0026 15.625715,-0.0026 23.434575,0 1.26256,-0.0026 2.52249,-0.0026 3.77976,0 0.25463,-0.0026 0.50661,-0.0026 0.75595,0 0.003,0.249338 0.003,0.501322 0,0.755951" />
    <path
       style="fill:none;stroke:#000000;stroke-width:2.16499996;stroke-linecap:butt;stroke-linejoin:miter;stroke-miterlimit:4;stroke-dasharray:none;stroke-dashoffset:0;stroke-opacity:1"
       d="m 126.92446,31.055948 c 2.77421,0.2522 5.54604,0.504184 7.30953,0.756323 1.76348,0.252139 2.51944,0.504126 3.52791,0.629853 1.00846,0.125727 2.26838,0.125727 3.14953,0.251985 0.88115,0.126257 1.38512,0.378242 2.26786,0.503969 0.88274,0.125727 2.14266,0.125727 2.89861,0.125727 0.75595,0 1.00794,0 1.25992,0 0.25198,0 0.50397,0 0.75463,0.125992 0.25066,0.125992 0.50265,0.377975 0.88194,0.503967 0.3793,0.125993 0.88327,0.125993 1.25992,0.251984 0.37666,0.125992 0.62864,0.377977 1.38592,0.503969 0.75727,0.125992 2.01719,0.125992 2.64583,0.250661 0.62864,0.124669 0.62864,0.376652 0.75595,0.503969 0.12732,0.127316 0.3793,0.127316 1.38724,0.127316 1.00793,0 2.77182,0 4.53307,0"
       id="path855"
       inkscape:connector-curvature="0"
       inkscape:path-effect="#path-effect857"
       inkscape:original-d="m 126.92446,31.055948 c 2.77447,0.249338 5.5463,0.501322 8.31548,0.755951 0.75859,0.249338 1.51455,0.501322 2.26785,0.755952 1.26257,-0.0026 2.52249,-0.0026 3.77976,0 0.50662,0.249338 1.01059,0.501325 1.51191,0.755954 1.26257,-0.0026 2.52249,-0.0026 3.77976,0 0.25463,-0.0026 0.50662,-0.0026 0.75595,0 0.25463,-0.0026 0.50662,-0.0026 0.75596,0 0.25463,0.249338 0.50661,0.501322 0.75595,0.755952 0.50661,-0.0026 1.01058,-0.0026 1.5119,0 0.25463,0.249338 0.50662,0.501322 0.75596,0.755952 1.26256,-0.0026 2.52248,-0.0026 3.77976,0 0.003,0.249338 0.003,0.501321 0,0.755954 0.25463,-0.0026 0.50661,-0.0026 0.75595,0 1.76653,-0.0026 3.53042,-0.0026 5.29167,0" />
    <path
       style="fill:none;stroke:#000000;stroke-width:2.16499996;stroke-linecap:butt;stroke-linejoin:miter;stroke-miterlimit:4;stroke-dasharray:none;stroke-dashoffset:0;stroke-opacity:1"
       d="m 125.41256,43.907138 c 7.31018,0 14.61772,0 21.92261,0"
       id="path859"
       inkscape:connector-curvature="0"
       inkscape:path-effect="#path-effect861"
       inkscape:original-d="m 125.41256,43.907138 c 7.31018,-0.0026 14.61772,-0.0026 21.92261,0" />
  </g>
</svg>
